<?xml version="1.0" encoding="utf-8"?>
<!-- Generator: Adobe Illustrator 23.0.4, SVG Export Plug-In . SVG Version: 6.00 Build 0)  -->
<svg version="1.1" id="Слой_1" xmlns="http://www.w3.org/2000/svg" xmlns:xlink="http://www.w3.org/1999/xlink" x="0px" y="0px"
	 viewBox="0 0 2502.2 2153.9" style="enable-background:new 0 0 2502.2 2153.9;" xml:space="preserve">
<style type="text/css">
	.st0{fill:none;stroke:#000000;}
	.st1{font-family:'Times-Roman';}
	.st2{font-size:14px;}
	.st3{fill:none;}
	.st4{fill:#201600;}
	.st5{fill:#FFFFFF;}
</style>
<title>controllers_diagram</title>
<g id="node2">
	<title>ApplicationController</title>
	<path class="st0" d="M1184.7,432.1h132.7c6,0,12-6,12-12v-304c0-6-6-12-12-12h-132.7c-6,0-12,6-12,12v304
		C1172.7,426.1,1178.7,432.1,1184.7,432.1"/>
	<text transform="matrix(1 0 0 1 1189.2777 119.3489)" class="st1 st2">ApplicationController</text>
	<line class="st0" x1="1172.7" y1="126.1" x2="1329.5" y2="126.1"/>
	<line class="st0" x1="1172.7" y1="150.1" x2="1329.5" y2="150.1"/>
	<text transform="matrix(1 0 0 1 1180.7285 165.3489)" class="st1 st2">resources_configuration?</text>
	<text transform="matrix(1 0 0 1 1180.7285 179.3489)" class="st1 st2">_edit_resource_params</text>
	<text transform="matrix(1 0 0 1 1180.7285 193.3489)" class="st1 st2">_new_resource_params</text>
	<text transform="matrix(1 0 0 1 1180.7285 207.3489)" class="st1 st2">_resource_params</text>
	<text transform="matrix(1 0 0 1 1180.7285 221.3489)" class="st1 st2">collection_path</text>
	<text transform="matrix(1 0 0 1 1180.7285 235.3489)" class="st1 st2">collection_url</text>
	<text transform="matrix(1 0 0 1 1180.7285 249.3489)" class="st1 st2">edit_resource_path</text>
	<text transform="matrix(1 0 0 1 1180.7285 263.3489)" class="st1 st2">edit_resource_url</text>
	<text transform="matrix(1 0 0 1 1180.7285 277.3489)" class="st1 st2">new_resource_path</text>
	<text transform="matrix(1 0 0 1 1180.7285 291.3489)" class="st1 st2">new_resource_url</text>
	<text transform="matrix(1 0 0 1 1180.7285 305.3489)" class="st1 st2">parents_symbols</text>
	<text transform="matrix(1 0 0 1 1180.7285 319.3489)" class="st1 st2">parents_symbols?</text>
	<text transform="matrix(1 0 0 1 1180.7285 333.3489)" class="st1 st2">resource_class</text>
	<text transform="matrix(1 0 0 1 1180.7285 347.3489)" class="st1 st2">resource_class?</text>
	<text transform="matrix(1 0 0 1 1180.7285 361.3489)" class="st1 st2">resource_path</text>
	<text transform="matrix(1 0 0 1 1180.7285 375.3489)" class="st1 st2">resource_url</text>
	<text transform="matrix(1 0 0 1 1180.7285 389.3489)" class="st1 st2">resources_configuration</text>
	<text transform="matrix(1 0 0 1 1180.7285 403.3489)" class="st1 st2">_collection_params</text>
	<line class="st0" x1="1172.7" y1="410.1" x2="1329.5" y2="410.1"/>
	<text transform="matrix(1 0 0 1 1180.7285 425.3489)" class="st1 st2">_layout</text>
</g>
<g id="node3">
	<title>AuthenticatedController</title>
	<path class="st0" d="M1186.8,748.3h128.1c6,0,12-6,12-12v-220c0-6-6-12-12-12h-128.1c-6,0-12,6-12,12v220
		C1174.8,742.3,1180.8,748.3,1186.8,748.3"/>
	<text transform="matrix(1 0 0 1 1182.804 519.5488)" class="st1 st2">AuthenticatedController</text>
	<line class="st0" x1="1174.8" y1="526.3" x2="1326.9" y2="526.3"/>
	<line class="st0" x1="1174.8" y1="550.3" x2="1326.9" y2="550.3"/>
	<text transform="matrix(1 0 0 1 1182.8086 565.5488)" class="st1 st2">resource_url</text>
	<text transform="matrix(1 0 0 1 1182.8086 579.5488)" class="st1 st2">_edit_resource_params</text>
	<text transform="matrix(1 0 0 1 1182.8086 593.5488)" class="st1 st2">_new_resource_params</text>
	<text transform="matrix(1 0 0 1 1182.8086 607.5488)" class="st1 st2">_resource_params</text>
	<text transform="matrix(1 0 0 1 1182.8086 621.5488)" class="st1 st2">collection_path</text>
	<text transform="matrix(1 0 0 1 1182.8086 635.5488)" class="st1 st2">collection_url</text>
	<text transform="matrix(1 0 0 1 1182.8086 649.5488)" class="st1 st2">edit_resource_path</text>
	<text transform="matrix(1 0 0 1 1182.8086 663.5488)" class="st1 st2">edit_resource_url</text>
	<text transform="matrix(1 0 0 1 1182.8086 677.5488)" class="st1 st2">new_resource_path</text>
	<text transform="matrix(1 0 0 1 1182.8086 691.5488)" class="st1 st2">new_resource_url</text>
	<text transform="matrix(1 0 0 1 1182.8086 705.5488)" class="st1 st2">resource_path</text>
	<text transform="matrix(1 0 0 1 1182.8086 719.5488)" class="st1 st2">_collection_params</text>
	<line class="st0" x1="1174.8" y1="726.3" x2="1326.9" y2="726.3"/>
	<text transform="matrix(1 0 0 1 1182.8086 741.5488)" class="st1 st2">_layout</text>
</g>
<g id="node4">
	<title>Admin::UsersController</title>
	<path class="st0" d="M1801.7,1492h128.1c6,0,12-6,12-12v-220c0-6-6-12-12-12h-128.1c-6,0-12,6-12,12v220
		C1789.7,1486,1795.7,1492,1801.7,1492"/>
	<text transform="matrix(1 0 0 1 1797.7122 1263.2461)" class="st1 st2">Admin::UsersController</text>
	<line class="st0" x1="1789.7" y1="1270" x2="1941.8" y2="1270"/>
	<line class="st0" x1="1789.7" y1="1294" x2="1941.8" y2="1294"/>
	<text transform="matrix(1 0 0 1 1797.7104 1309.2461)" class="st1 st2">resource_url</text>
	<text transform="matrix(1 0 0 1 1797.7104 1323.2461)" class="st1 st2">_edit_resource_params</text>
	<text transform="matrix(1 0 0 1 1797.7104 1337.2461)" class="st1 st2">_new_resource_params</text>
	<text transform="matrix(1 0 0 1 1797.7104 1351.2461)" class="st1 st2">_resource_params</text>
	<text transform="matrix(1 0 0 1 1797.7104 1365.2461)" class="st1 st2">collection_path</text>
	<text transform="matrix(1 0 0 1 1797.7104 1379.2461)" class="st1 st2">collection_url</text>
	<text transform="matrix(1 0 0 1 1797.7104 1393.2461)" class="st1 st2">edit_resource_path</text>
	<text transform="matrix(1 0 0 1 1797.7104 1407.2461)" class="st1 st2">edit_resource_url</text>
	<text transform="matrix(1 0 0 1 1797.7104 1421.2461)" class="st1 st2">new_resource_path</text>
	<text transform="matrix(1 0 0 1 1797.7104 1435.2461)" class="st1 st2">new_resource_url</text>
	<text transform="matrix(1 0 0 1 1797.7104 1449.2461)" class="st1 st2">resource_path</text>
	<text transform="matrix(1 0 0 1 1797.7104 1463.2461)" class="st1 st2">_collection_params</text>
	<line class="st0" x1="1789.7" y1="1470" x2="1941.8" y2="1470"/>
	<text transform="matrix(1 0 0 1 1797.7104 1485.2461)" class="st1 st2">_layout</text>
</g>
<g id="node5">
	<title>Admin::DashboardController</title>
	<path class="st0" d="M1374.4,1496.8h156.9c6,0,12-6,12-12v-220c0-6-6-12-12-12h-156.9c-6,0-12,6-12,12v220
		C1362.4,1490.8,1368.4,1496.8,1374.4,1496.8"/>
	<text transform="matrix(1 0 0 1 1370.3726 1268.0461)" class="st1 st2">Admin::DashboardController</text>
	<line class="st0" x1="1362.4" y1="1274.8" x2="1543.2" y2="1274.8"/>
	<line class="st0" x1="1362.4" y1="1298.8" x2="1543.2" y2="1298.8"/>
	<text transform="matrix(1 0 0 1 1370.3738 1314.0461)" class="st1 st2">resource_url</text>
	<text transform="matrix(1 0 0 1 1370.3738 1328.0461)" class="st1 st2">_edit_resource_params</text>
	<text transform="matrix(1 0 0 1 1370.3738 1342.0461)" class="st1 st2">_new_resource_params</text>
	<text transform="matrix(1 0 0 1 1370.3738 1356.0461)" class="st1 st2">_resource_params</text>
	<text transform="matrix(1 0 0 1 1370.3738 1370.0461)" class="st1 st2">collection_path</text>
	<text transform="matrix(1 0 0 1 1370.3738 1384.0463)" class="st1 st2">collection_url</text>
	<text transform="matrix(1 0 0 1 1370.3738 1398.0463)" class="st1 st2">edit_resource_path</text>
	<text transform="matrix(1 0 0 1 1370.3738 1412.0463)" class="st1 st2">edit_resource_url</text>
	<text transform="matrix(1 0 0 1 1370.3738 1426.0463)" class="st1 st2">new_resource_path</text>
	<text transform="matrix(1 0 0 1 1370.3738 1440.0463)" class="st1 st2">new_resource_url</text>
	<text transform="matrix(1 0 0 1 1370.3738 1454.0463)" class="st1 st2">resource_path</text>
	<text transform="matrix(1 0 0 1 1370.3738 1468.0463)" class="st1 st2">_collection_params</text>
	<line class="st0" x1="1362.4" y1="1474.8" x2="1543.2" y2="1474.8"/>
	<text transform="matrix(1 0 0 1 1370.3738 1490.0463)" class="st1 st2">_layout</text>
</g>
<g id="node6">
	<title>Common::DevicesController</title>
	<path class="st0" d="M1165.4,1127.6H1320c6,0,12-6,12-12v-260c0-6-6-12-12-12h-154.5c-6,0-12,6-12,12v260
		C1153.4,1121.6,1159.4,1127.6,1165.4,1127.6"/>
	<text transform="matrix(1 0 0 1 1161.431 858.7986)" class="st1 st2">Common::DevicesController</text>
	<line class="st0" x1="1153.4" y1="865.6" x2="1332" y2="865.6"/>
	<text transform="matrix(1 0 0 1 1161.4268 880.7986)" class="st1 st2">create</text>
	<text transform="matrix(1 0 0 1 1161.4268 894.7986)" class="st1 st2">update</text>
	<line class="st0" x1="1153.4" y1="901.6" x2="1332" y2="901.6"/>
	<text transform="matrix(1 0 0 1 1161.4268 916.7986)" class="st1 st2">resource_url</text>
	<text transform="matrix(1 0 0 1 1161.4268 930.7986)" class="st1 st2">_edit_resource_params</text>
	<text transform="matrix(1 0 0 1 1161.4268 944.7986)" class="st1 st2">_new_resource_params</text>
	<text transform="matrix(1 0 0 1 1161.4268 958.7986)" class="st1 st2">_resource_params</text>
	<text transform="matrix(1 0 0 1 1161.4268 972.7986)" class="st1 st2">begin_of_association_chain</text>
	<text transform="matrix(1 0 0 1 1161.4268 986.7986)" class="st1 st2">collection_path</text>
	<text transform="matrix(1 0 0 1 1161.4268 1000.7986)" class="st1 st2">collection_url</text>
	<text transform="matrix(1 0 0 1 1161.4268 1014.7986)" class="st1 st2">edit_resource_path</text>
	<text transform="matrix(1 0 0 1 1161.4268 1028.7986)" class="st1 st2">edit_resource_url</text>
	<text transform="matrix(1 0 0 1 1161.4268 1042.7986)" class="st1 st2">new_resource_path</text>
	<text transform="matrix(1 0 0 1 1161.4268 1056.7986)" class="st1 st2">new_resource_url</text>
	<text transform="matrix(1 0 0 1 1161.4268 1070.7986)" class="st1 st2">resource_path</text>
	<text transform="matrix(1 0 0 1 1161.4268 1084.7986)" class="st1 st2">_collection_params</text>
	<line class="st0" x1="1153.4" y1="1091.6" x2="1332" y2="1091.6"/>
	<text transform="matrix(1 0 0 1 1161.4268 1106.7986)" class="st1 st2">_layout</text>
	<text transform="matrix(1 0 0 1 1161.4268 1120.7986)" class="st1 st2">permitted_params</text>
</g>
<g id="node7">
	<title>Common::MediaController</title>
	<path class="st0" d="M951.4,1112.8h145.2c6,0,12-6,12-12v-246c0-6-6-12-12-12H951.4c-6,0-12,6-12,12v246
		C939.4,1106.8,945.4,1112.8,951.4,1112.8"/>
	<text transform="matrix(1 0 0 1 947.4257 857.9983)" class="st1 st2">Common::MediaController</text>
	<line class="st0" x1="939.4" y1="864.8" x2="1108.6" y2="864.8"/>
	<text transform="matrix(1 0 0 1 947.4293 879.9983)" class="st1 st2">create</text>
	<text transform="matrix(1 0 0 1 947.4293 893.9983)" class="st1 st2">update</text>
	<line class="st0" x1="939.4" y1="900.8" x2="1108.6" y2="900.8"/>
	<text transform="matrix(1 0 0 1 947.4293 915.9983)" class="st1 st2">resource_url</text>
	<text transform="matrix(1 0 0 1 947.4293 929.9983)" class="st1 st2">_edit_resource_params</text>
	<text transform="matrix(1 0 0 1 947.4293 943.9983)" class="st1 st2">_new_resource_params</text>
	<text transform="matrix(1 0 0 1 947.4293 957.9983)" class="st1 st2">_resource_params</text>
	<text transform="matrix(1 0 0 1 947.4293 971.9983)" class="st1 st2">collection_path</text>
	<text transform="matrix(1 0 0 1 947.4293 985.9983)" class="st1 st2">collection_url</text>
	<text transform="matrix(1 0 0 1 947.4293 999.9983)" class="st1 st2">edit_resource_path</text>
	<text transform="matrix(1 0 0 1 947.4293 1013.9983)" class="st1 st2">edit_resource_url</text>
	<text transform="matrix(1 0 0 1 947.4293 1027.9983)" class="st1 st2">new_resource_path</text>
	<text transform="matrix(1 0 0 1 947.4293 1041.9983)" class="st1 st2">new_resource_url</text>
	<text transform="matrix(1 0 0 1 947.4293 1055.9983)" class="st1 st2">resource_path</text>
	<text transform="matrix(1 0 0 1 947.4293 1069.9983)" class="st1 st2">_collection_params</text>
	<line class="st0" x1="939.4" y1="1076.8" x2="1108.6" y2="1076.8"/>
	<text transform="matrix(1 0 0 1 947.4293 1091.9983)" class="st1 st2">_layout</text>
	<text transform="matrix(1 0 0 1 947.4293 1105.9983)" class="st1 st2">permitted_params</text>
</g>
<g id="node8">
	<title>Common::SchedulesController</title>
	<path class="st0" d="M710.4,1128.8h166.2c6,0,12-6,12-12v-260c0-6-6-12-12-12H710.4c-6,0-12,6-12,12v260
		C698.4,1122.8,704.4,1128.8,710.4,1128.8"/>
	<text transform="matrix(1 0 0 1 706.4448 859.9983)" class="st1 st2">Common::SchedulesController</text>
	<line class="st0" x1="698.4" y1="866.8" x2="888.7" y2="866.8"/>
	<text transform="matrix(1 0 0 1 706.4485 881.9983)" class="st1 st2">create</text>
	<text transform="matrix(1 0 0 1 706.4485 895.9983)" class="st1 st2">update</text>
	<line class="st0" x1="698.4" y1="902.8" x2="888.7" y2="902.8"/>
	<text transform="matrix(1 0 0 1 706.4485 917.9983)" class="st1 st2">resource_url</text>
	<text transform="matrix(1 0 0 1 706.4485 931.9983)" class="st1 st2">_edit_resource_params</text>
	<text transform="matrix(1 0 0 1 706.4485 945.9983)" class="st1 st2">_new_resource_params</text>
	<text transform="matrix(1 0 0 1 706.4485 959.9983)" class="st1 st2">_resource_params</text>
	<text transform="matrix(1 0 0 1 706.4485 973.9983)" class="st1 st2">begin_of_association_chain</text>
	<text transform="matrix(1 0 0 1 706.4485 987.9983)" class="st1 st2">collection_path</text>
	<text transform="matrix(1 0 0 1 706.4485 1001.9983)" class="st1 st2">collection_url</text>
	<text transform="matrix(1 0 0 1 706.4485 1015.9983)" class="st1 st2">edit_resource_path</text>
	<text transform="matrix(1 0 0 1 706.4485 1029.9983)" class="st1 st2">edit_resource_url</text>
	<text transform="matrix(1 0 0 1 706.4485 1043.9983)" class="st1 st2">new_resource_path</text>
	<text transform="matrix(1 0 0 1 706.4485 1057.9983)" class="st1 st2">new_resource_url</text>
	<text transform="matrix(1 0 0 1 706.4485 1071.9983)" class="st1 st2">resource_path</text>
	<text transform="matrix(1 0 0 1 706.4485 1085.9983)" class="st1 st2">_collection_params</text>
	<line class="st0" x1="698.4" y1="1092.8" x2="888.7" y2="1092.8"/>
	<text transform="matrix(1 0 0 1 706.4485 1107.9983)" class="st1 st2">_layout</text>
	<text transform="matrix(1 0 0 1 706.4485 1121.9983)" class="st1 st2">permitted_params</text>
</g>
<g id="node9">
	<title>Common::DashboardController</title>
	<path class="st0" d="M465.6,1087.7h170.1c6,0,12-6,12-12v-220c0-6-6-12-12-12H465.6c-6,0-12,6-12,12v220
		C453.6,1081.7,459.6,1087.7,465.6,1087.7"/>
	<text transform="matrix(1 0 0 1 461.5828 858.8983)" class="st1 st2">Common::DashboardController</text>
	<line class="st0" x1="453.6" y1="865.7" x2="647.7" y2="865.7"/>
	<line class="st0" x1="453.6" y1="889.7" x2="647.7" y2="889.7"/>
	<text transform="matrix(1 0 0 1 461.5877 904.8983)" class="st1 st2">resource_url</text>
	<text transform="matrix(1 0 0 1 461.5877 918.8983)" class="st1 st2">_edit_resource_params</text>
	<text transform="matrix(1 0 0 1 461.5877 932.8983)" class="st1 st2">_new_resource_params</text>
	<text transform="matrix(1 0 0 1 461.5877 946.8983)" class="st1 st2">_resource_params</text>
	<text transform="matrix(1 0 0 1 461.5877 960.8983)" class="st1 st2">collection_path</text>
	<text transform="matrix(1 0 0 1 461.5877 974.8983)" class="st1 st2">collection_url</text>
	<text transform="matrix(1 0 0 1 461.5877 988.8983)" class="st1 st2">edit_resource_path</text>
	<text transform="matrix(1 0 0 1 461.5877 1002.8983)" class="st1 st2">edit_resource_url</text>
	<text transform="matrix(1 0 0 1 461.5877 1016.8983)" class="st1 st2">new_resource_path</text>
	<text transform="matrix(1 0 0 1 461.5877 1030.8983)" class="st1 st2">new_resource_url</text>
	<text transform="matrix(1 0 0 1 461.5877 1044.8983)" class="st1 st2">resource_path</text>
	<text transform="matrix(1 0 0 1 461.5877 1058.8983)" class="st1 st2">_collection_params</text>
	<line class="st0" x1="453.6" y1="1065.7" x2="647.7" y2="1065.7"/>
	<text transform="matrix(1 0 0 1 461.5877 1080.8983)" class="st1 st2">_layout</text>
</g>
<g id="node10">
	<title>AdminController</title>
	<path class="st0" d="M1597.2,1103h124.2c6,0,12-6,12-12V857c0-6-6-12-12-12h-124.2c-6,0-12,6-12,12v234
		C1585.2,1097,1591.2,1103,1597.2,1103"/>
	<text transform="matrix(1 0 0 1 1611.0253 860.1982)" class="st1 st2">AdminController</text>
	<line class="st0" x1="1585.2" y1="867" x2="1733.3" y2="867"/>
	<line class="st0" x1="1585.2" y1="891" x2="1733.3" y2="891"/>
	<text transform="matrix(1 0 0 1 1593.1625 906.1982)" class="st1 st2">resource_url</text>
	<text transform="matrix(1 0 0 1 1593.1625 920.1982)" class="st1 st2">_edit_resource_params</text>
	<text transform="matrix(1 0 0 1 1593.1625 934.1982)" class="st1 st2">_new_resource_params</text>
	<text transform="matrix(1 0 0 1 1593.1625 948.1982)" class="st1 st2">_resource_params</text>
	<text transform="matrix(1 0 0 1 1593.1625 962.1982)" class="st1 st2">collection_path</text>
	<text transform="matrix(1 0 0 1 1593.1625 976.1982)" class="st1 st2">collection_url</text>
	<text transform="matrix(1 0 0 1 1593.1625 990.1982)" class="st1 st2">edit_resource_path</text>
	<text transform="matrix(1 0 0 1 1593.1625 1004.1982)" class="st1 st2">edit_resource_url</text>
	<text transform="matrix(1 0 0 1 1593.1625 1018.1982)" class="st1 st2">new_resource_path</text>
	<text transform="matrix(1 0 0 1 1593.1625 1032.1982)" class="st1 st2">new_resource_url</text>
	<text transform="matrix(1 0 0 1 1593.1625 1046.1982)" class="st1 st2">resource_path</text>
	<text transform="matrix(1 0 0 1 1593.1625 1060.1982)" class="st1 st2">_collection_params</text>
	<line class="st0" x1="1585.2" y1="1067" x2="1733.3" y2="1067"/>
	<text transform="matrix(1 0 0 1 1593.1625 1082.1982)" class="st1 st2">_layout</text>
	<text transform="matrix(1 0 0 1 1593.1625 1096.1982)" class="st1 st2">ensure_user_is_admin</text>
</g>
<path d="M1247.5,432.1"/>
<path d="M1038.2,691.5"/>
<g>
	<rect x="543.9" y="771.5" class="st3" width="13.5" height="72.2"/>
	<polygon class="st4" points="557.4,800.5 550.6,771.5 543.9,800.5 547.8,800.5 547.8,843.7 553.4,843.7 553.4,800.5 	"/>
</g>
<rect x="550.6" y="767.5" width="696.7" height="5.4"/>
<rect x="1240" y="748.9" width="5.6" height="20.9"/>
<rect x="1243.6" y="767.5" width="415.7" height="5.4"/>
<rect x="1452.8" y="1175.2" width="413" height="5.4"/>
<polygon class="st5" points="550.7,776.7 546.3,798.5 554.7,798.5 "/>
<g>
	<rect x="784.9" y="772.9" class="st3" width="13.5" height="72.2"/>
	<polygon class="st4" points="798.4,801.9 791.6,772.9 784.9,801.9 788.8,801.9 788.8,845.1 794.4,845.1 794.4,801.9 	"/>
</g>
<polygon class="st5" points="791.7,778.1 787.3,799.9 795.7,799.9 "/>
<g>
	<rect x="1017.3" y="770.2" class="st3" width="13.5" height="72.2"/>
	<polygon class="st4" points="1030.8,799.2 1024,770.2 1017.3,799.2 1021.2,799.2 1021.2,842.4 1026.8,842.4 1026.8,799.2 	"/>
</g>
<polygon class="st5" points="1024.1,775.3 1019.7,797.2 1028.1,797.2 "/>
<g>
	<rect x="1236" y="770.3" class="st3" width="13.5" height="72.2"/>
	<polygon class="st4" points="1249.5,799.3 1242.8,770.3 1236,799.3 1240,799.3 1240,842.5 1245.6,842.5 1245.6,799.3 	"/>
</g>
<polygon class="st5" points="1242.9,775.5 1238.5,797.3 1246.9,797.3 "/>
<g>
	<rect x="1652.5" y="772.9" class="st3" width="13.5" height="72.2"/>
	<polygon class="st4" points="1666,801.9 1659.3,772.9 1652.5,801.9 1656.5,801.9 1656.5,845.1 1662.1,845.1 1662.1,801.9 	"/>
</g>
<polygon class="st5" points="1659.3,778.1 1655,799.9 1663.4,799.9 "/>
<g>
	<rect x="1652.5" y="1103" class="st3" width="13.5" height="72.2"/>
	<polygon class="st4" points="1666,1132 1659.2,1103 1652.5,1132 1656.4,1132 1656.4,1175.2 1662.1,1175.2 1662.1,1132 	"/>
</g>
<polygon class="st5" points="1659.3,1108.2 1655,1130 1663.3,1130 "/>
<g>
	<rect x="1446.1" y="1180.6" class="st3" width="13.5" height="72.2"/>
	<polygon class="st4" points="1459.6,1209.6 1452.8,1180.6 1446.1,1209.6 1450,1209.6 1450,1252.8 1455.6,1252.8 1455.6,1209.6 	"/>
</g>
<polygon class="st5" points="1452.9,1185.8 1448.5,1207.7 1456.9,1207.7 "/>
<g>
	<rect x="1859" y="1175.2" class="st3" width="13.5" height="72.2"/>
	<polygon class="st4" points="1872.5,1204.2 1865.8,1175.2 1859,1204.2 1862.9,1204.2 1862.9,1247.4 1868.6,1247.4 1868.6,1204.2 	
		"/>
</g>
<polygon class="st5" points="1865.8,1180.4 1861.5,1202.2 1869.9,1202.2 "/>
<g>
	<rect x="1240.7" y="431.6" class="st3" width="13.5" height="72.2"/>
	<polygon class="st4" points="1254.2,460.6 1247.5,431.6 1240.7,460.6 1244.6,460.6 1244.6,503.8 1250.3,503.8 1250.3,460.6 	"/>
</g>
<polygon class="st5" points="1247.5,436.8 1243.2,458.6 1251.6,458.6 "/>
</svg>
