<?xml version="1.0" encoding="UTF-8" standalone="no"?>
<!DOCTYPE svg PUBLIC "-//W3C//DTD SVG 1.1//EN"
 "http://www.w3.org/Graphics/SVG/1.1/DTD/svg11.dtd">
<!-- Generated by graphviz version 2.43.0 (0)
 -->
<!-- Title: models_diagram Pages: 1 -->
<svg width="791pt" height="240pt"
 viewBox="0.00 0.00 791.26 240.00" xmlns="http://www.w3.org/2000/svg" xmlns:xlink="http://www.w3.org/1999/xlink">
<g id="graph0" class="graph" transform="scale(1 1) rotate(0) translate(4 236)">
<title>models_diagram</title>
<polygon fill="transparent" stroke="transparent" points="-4,4 -4,-236 787.26,-236 787.26,4 -4,4"/>
<!-- _diagram_info -->
<g id="node1" class="node">
<title>_diagram_info</title>
<text text-anchor="start" x="340.41" y="-217.6" font-family="Times,serif" font-size="13.00">Models diagram</text>
<text text-anchor="start" x="340.41" y="-204.6" font-family="Times,serif" font-size="13.00">Date: Nov 16 2019 &#45; 00:22</text>
<text text-anchor="start" x="340.41" y="-191.6" font-family="Times,serif" font-size="13.00">Migration version: 20191102090719</text>
<text text-anchor="start" x="340.41" y="-178.6" font-family="Times,serif" font-size="13.00">Generated by RailRoady 1.5.3</text>
<text text-anchor="start" x="340.41" y="-165.6" font-family="Times,serif" font-size="13.00">http://railroady.prestonlee.com</text>
</g>
<!-- Schedule -->
<g id="node2" class="node">
<title>Schedule</title>
<ellipse fill="none" stroke="black" cx="536.86" cy="-104" rx="42.55" ry="18"/>
<text text-anchor="middle" x="536.86" y="-99.8" font-family="Times,serif" font-size="14.00">Schedule</text>
</g>
<!-- ScheduledMedia -->
<g id="node3" class="node">
<title>ScheduledMedia</title>
<ellipse fill="none" stroke="black" cx="484.86" cy="-18" rx="69.57" ry="18"/>
<text text-anchor="middle" x="484.86" y="-13.8" font-family="Times,serif" font-size="14.00">ScheduledMedia</text>
</g>
<!-- Schedule&#45;&gt;ScheduledMedia -->
<g id="edge2" class="edge">
<title>Schedule&#45;&gt;ScheduledMedia</title>
<path fill="none" stroke="#4b5cf3" d="M522.31,-79.5C515.6,-68.65 507.62,-55.76 500.75,-44.66"/>
<ellipse fill="none" stroke="#4b5cf3" cx="524.48" cy="-83" rx="4" ry="4"/>
<polygon fill="#4b5cf3" stroke="#4b5cf3" points="500.56,-44.35 499.12,-33.48 497.92,-40.1 495.29,-35.85 495.29,-35.85 495.29,-35.85 497.92,-40.1 491.47,-38.22 500.56,-44.35 500.56,-44.35"/>
</g>
<!-- Device -->
<g id="node4" class="node">
<title>Device</title>
<ellipse fill="none" stroke="black" cx="607.86" cy="-18" rx="35.3" ry="18"/>
<text text-anchor="middle" x="607.86" y="-13.8" font-family="Times,serif" font-size="14.00">Device</text>
</g>
<!-- Schedule&#45;&gt;Device -->
<g id="edge1" class="edge">
<title>Schedule&#45;&gt;Device</title>
<path fill="none" stroke="#f67f14" d="M555.88,-80.5C566.16,-68.34 578.8,-53.38 589.04,-41.27"/>
<ellipse fill="none" stroke="#f67f14" cx="553.13" cy="-83.75" rx="4" ry="4"/>
<ellipse fill="#f67f14" stroke="#f67f14" cx="591.87" cy="-37.92" rx="4" ry="4"/>
</g>
<!-- ApplicationRecord -->
<g id="node5" class="node">
<title>ApplicationRecord</title>
<ellipse fill="none" stroke="black" cx="705.86" cy="-195.5" rx="77.29" ry="18"/>
<text text-anchor="middle" x="705.86" y="-191.3" font-family="Times,serif" font-size="14.00">ApplicationRecord</text>
</g>
<!-- Media -->
<g id="node6" class="node">
<title>Media</title>
<ellipse fill="none" stroke="black" cx="314.86" cy="-104" rx="32.9" ry="18"/>
<text text-anchor="middle" x="314.86" y="-99.8" font-family="Times,serif" font-size="14.00">Media</text>
</g>
<!-- Media&#45;&gt;ScheduledMedia -->
<g id="edge5" class="edge">
<title>Media&#45;&gt;ScheduledMedia</title>
<path fill="none" stroke="#4fbdbb" d="M345.94,-87.64C373.76,-73.9 414.69,-53.67 444.93,-38.73"/>
<ellipse fill="none" stroke="#4fbdbb" cx="342.09" cy="-89.55" rx="4" ry="4"/>
<polygon fill="#4fbdbb" stroke="#4fbdbb" points="444.98,-38.71 455.93,-38.31 449.46,-36.49 453.94,-34.28 453.94,-34.28 453.94,-34.28 449.46,-36.49 451.95,-30.24 444.98,-38.71 444.98,-38.71"/>
</g>
<!-- ActiveStorage::Attachment -->
<g id="node8" class="node">
<title>ActiveStorage::Attachment</title>
<ellipse fill="none" stroke="black" cx="106.86" cy="-18" rx="106.73" ry="18"/>
<text text-anchor="middle" x="106.86" y="-13.8" font-family="Times,serif" font-size="14.00">ActiveStorage::Attachment</text>
</g>
<!-- Media&#45;&gt;ActiveStorage::Attachment -->
<g id="edge3" class="edge">
<title>Media&#45;&gt;ActiveStorage::Attachment</title>
<path fill="none" stroke="#9c3458" d="M281.19,-90.18C264.18,-83.64 243.23,-75.5 224.56,-68 200.49,-58.33 173.8,-47.24 151.92,-38.07"/>
<ellipse fill="none" stroke="#9c3458" cx="284.98" cy="-91.63" rx="4" ry="4"/>
<ellipse fill="#9c3458" stroke="#9c3458" cx="148.09" cy="-36.45" rx="4" ry="4"/>
<text text-anchor="middle" x="268.01" y="-56.8" font-family="Times,serif" font-size="14.00">file_attachment</text>
</g>
<!-- ActiveStorage::Blob -->
<g id="node9" class="node">
<title>ActiveStorage::Blob</title>
<ellipse fill="none" stroke="black" cx="314.86" cy="-18" rx="82.61" ry="18"/>
<text text-anchor="middle" x="314.86" y="-13.8" font-family="Times,serif" font-size="14.00">ActiveStorage::Blob</text>
</g>
<!-- Media&#45;&gt;ActiveStorage::Blob -->
<g id="edge4" class="edge">
<title>Media&#45;&gt;ActiveStorage::Blob</title>
<path fill="none" stroke="#c45bc5" d="M314.86,-77.26C314.86,-66.81 314.86,-54.79 314.86,-44.38"/>
<ellipse fill="none" stroke="#c45bc5" cx="314.86" cy="-81.6" rx="4" ry="4"/>
<ellipse fill="#c45bc5" stroke="#c45bc5" cx="314.86" cy="-40.1" rx="4" ry="4"/>
<text text-anchor="middle" x="339.75" y="-56.8" font-family="Times,serif" font-size="14.00">file_blob</text>
</g>
<!-- User -->
<g id="node7" class="node">
<title>User</title>
<ellipse fill="none" stroke="black" cx="583.86" cy="-195.5" rx="27" ry="18"/>
<text text-anchor="middle" x="583.86" y="-191.3" font-family="Times,serif" font-size="14.00">User</text>
</g>
<!-- User&#45;&gt;Schedule -->
<g id="edge7" class="edge">
<title>User&#45;&gt;Schedule</title>
<path fill="none" stroke="#5c660a" d="M571.48,-170.92C565.03,-158.65 557.14,-143.61 550.52,-131"/>
<ellipse fill="none" stroke="#5c660a" cx="573.38" cy="-174.54" rx="4" ry="4"/>
<polygon fill="#5c660a" stroke="#5c660a" points="550.4,-130.77 549.73,-119.83 548.07,-126.35 545.75,-121.92 545.75,-121.92 545.75,-121.92 548.07,-126.35 541.76,-124.01 550.4,-130.77 550.4,-130.77"/>
</g>
<!-- User&#45;&gt;Device -->
<g id="edge6" class="edge">
<title>User&#45;&gt;Device</title>
<path fill="none" stroke="#57ce05" d="M587.32,-169.25C591.78,-136.58 599.54,-79.88 604.13,-46.26"/>
<ellipse fill="none" stroke="#57ce05" cx="586.75" cy="-173.39" rx="4" ry="4"/>
<polygon fill="#57ce05" stroke="#57ce05" points="604.15,-46.12 609.97,-36.83 604.83,-41.17 605.51,-36.22 605.51,-36.22 605.51,-36.22 604.83,-41.17 601.05,-35.61 604.15,-46.12 604.15,-46.12"/>
</g>
</g>
</svg>
